# xmcd CD database file
#
# Track frame offsets:
#	150
#	136075
#	181239
#	205072
#	237543
#	264014
#	288956
#	319545
#
# Disc length: 4518 seconds
#
# Revision: 0
# Processed by: cddbd v1.5.2PL0 Copyright (c) Steve Scherf et al.
# Submitted via: CDex 1.51
#
DISCID=6611a408
DTITLE=Sound for the Organization of Society - India and Africa
DYEAR=2007
DGENRE=Jazz
TTITLE0=India and Africa
TTITLE1=Street Time
TTITLE2=Your Babbling Drives Me Crazy
TTITLE3=Interval Mechanic
TTITLE4=Invisible Beats
TTITLE5=For Octet
TTITLE6=This is Not America!
TTITLE7=Yumbo
EXTD=YEAR: 2007
EXTT0=
EXTT1=
EXTT2=
EXTT3=
EXTT4=
EXTT5=
EXTT6=
EXTT7=
PLAYORDER=
